<svg width="148" height="42" viewBox="0 0 148 42" fill="none" xmlns="http://www.w3.org/2000/svg">
<path d="M21 42C16.8466 42 12.7865 40.7684 9.33303 38.4609C5.8796 36.1534 3.18798 32.8736 1.59854 29.0364C0.00909905 25.1991 -0.406771 20.9767 0.403519 16.9031C1.21381 12.8295 3.21386 9.08767 6.15077 6.15077C9.08767 3.21386 12.8295 1.21381 16.9031 0.403519C20.9767 -0.406771 25.1991 0.00909905 29.0364 1.59854C32.8736 3.18798 36.1534 5.8796 38.4609 9.33303C40.7684 12.7865 42 16.8466 42 21C41.9933 26.5675 39.7787 31.9051 35.8419 35.8419C31.9051 39.7787 26.5675 41.9933 21 42ZM21 1.60326C17.1646 1.60388 13.4155 2.74174 10.2267 4.87298C7.03791 7.00422 4.55268 10.0331 3.08521 13.5767C1.61775 17.1203 1.23396 21.0194 1.98236 24.7811C2.73077 28.5428 4.57777 31.9981 7.28982 34.7102C10.0019 37.4222 13.4572 39.2692 17.2189 40.0177C20.9806 40.7661 24.8797 40.3823 28.4233 38.9148C31.9669 37.4473 34.9958 34.9621 37.127 31.7733C39.2583 28.5845 40.3961 24.8354 40.3968 21C40.3909 15.8578 38.3454 10.9278 34.7089 7.29201C31.0725 3.65618 26.1423 1.61142 21 1.60641V1.60326Z" fill="black"/>
<path d="M25.504 27.716C23.8944 27.716 22.8751 27.0848 22.8751 24.7335V19.1758H26.9779V13.8422H22.8751V8.35077L19.738 10.56L16.6009 8.35077V13.8422H13.4229V19.1758H16.6009V25.674C16.6009 30.5374 18.3651 33.2831 23.0329 33.2831C24.4164 33.2831 25.7917 33.0703 27.1104 32.6519V27.4572C26.5928 27.6313 26.0501 27.7187 25.504 27.716Z" fill="black"/>
<path d="M54.3496 35.0032V27.6907H59.1404V28.5018H55.2617V35.0032H54.3496Z" fill="black"/>
<path d="M60.5071 34.2015V37.0167H59.6865V29.7074H60.5071V30.4964C60.7111 30.2131 60.9793 29.9821 61.2898 29.8225C61.6003 29.6628 61.9442 29.579 62.2934 29.578C63.6852 29.578 64.6509 30.6289 64.6509 32.349C64.6509 34.069 63.6852 35.1326 62.2934 35.1326C61.9425 35.1335 61.5967 35.0492 61.2855 34.8871C60.9744 34.7249 60.7073 34.4897 60.5071 34.2015ZM63.783 32.349C63.783 31.1781 63.1518 30.3102 62.0851 30.3102C61.7737 30.3154 61.4681 30.3949 61.1937 30.542C60.9192 30.6891 60.6838 30.8996 60.5071 31.156V33.5451C60.6832 33.8028 60.9182 34.0149 61.1926 34.1636C61.467 34.3124 61.773 34.3935 62.0851 34.4004C63.1487 34.4004 63.783 33.523 63.783 32.349Z" fill="black"/>
<path d="M66.0612 36.3287C66.2043 36.3836 66.3561 36.4125 66.5093 36.4139C66.6852 36.4267 66.8601 36.378 67.004 36.2761C67.1479 36.1742 67.252 36.0254 67.2983 35.8553L67.6486 35.0568L65.4395 29.6916H66.3263L68.0905 34.0343L69.8452 29.6916H70.7447L68.0905 36.0604C67.9817 36.3833 67.7714 36.6622 67.491 36.8556C67.2105 37.0491 66.875 37.1465 66.5346 37.1335C66.3314 37.1312 66.1292 37.1058 65.9318 37.0577L66.0612 36.3287Z" fill="black"/>
<path d="M75.4502 35.0031V30.4332H72.6887V35.0031H71.8682V29.7074H76.2866V35.0031H75.4502Z" fill="black"/>
<path d="M81.7715 35.0031V30.4332H79.01V35.0031H78.1895V29.7074H82.5921V35.0031H81.7715Z" fill="black"/>
<path d="M87.819 35.0031V34.4003C87.5957 34.6406 87.3236 34.8302 87.0209 34.9565C86.7183 35.0828 86.3921 35.1428 86.0643 35.1325C85.8265 35.1445 85.5887 35.1081 85.3654 35.0256C85.1421 34.943 84.9378 34.816 84.7649 34.6523C84.592 34.4886 84.4542 34.2915 84.3596 34.073C84.2651 33.8545 84.2158 33.6191 84.2148 33.381C84.2148 32.1975 85.1616 31.6389 86.0643 31.6389C86.3921 31.6214 86.7197 31.6772 87.0232 31.8022C87.3267 31.9272 87.5986 32.1183 87.819 32.3616V31.4148C87.819 30.7015 87.2478 30.2944 86.4808 30.2944C86.1736 30.2908 85.8693 30.3547 85.5895 30.4818C85.3097 30.6089 85.0613 30.796 84.8618 31.0297L84.4768 30.4585C84.7467 30.1706 85.0749 29.9437 85.4396 29.793C85.8043 29.6422 86.1969 29.571 86.5913 29.5843C87.7085 29.5843 88.6395 30.0861 88.6395 31.3706V35.0095L87.819 35.0031ZM87.819 33.8828V32.8855C87.6443 32.6695 87.4214 32.4976 87.1681 32.3836C86.9149 32.2696 86.6384 32.2166 86.3609 32.229C85.594 32.229 85.0575 32.7119 85.0575 33.3904C85.0575 34.069 85.594 34.5424 86.3609 34.5424C86.6386 34.5541 86.9152 34.5006 87.1684 34.386C87.4217 34.2715 87.6445 34.0991 87.819 33.8828Z" fill="black"/>
<path d="M95.4969 35.0032V28.5018H93.1836V27.6907H98.7318V28.5018H96.4059V35.0032H95.4969Z" fill="black"/>
<path d="M98.6094 32.349C98.6094 30.8152 99.7045 29.578 101.216 29.578C102.816 29.578 103.76 30.8404 103.76 32.4184V32.6267H99.4741C99.4832 33.1203 99.6877 33.5901 100.043 33.9332C100.398 34.2764 100.874 34.4648 101.368 34.4572C101.98 34.4595 102.568 34.2189 103.003 33.7881L103.397 34.3246C103.119 34.5946 102.789 34.8056 102.427 34.945C102.066 35.0844 101.679 35.1492 101.292 35.1357C99.7298 35.1326 98.6094 34.0059 98.6094 32.349ZM101.207 30.2565C100.077 30.2565 99.5183 31.2033 99.4741 32.0207H102.946C102.952 31.7895 102.912 31.5593 102.827 31.344C102.742 31.1287 102.615 30.9328 102.452 30.768C102.29 30.6032 102.096 30.473 101.882 30.3851C101.668 30.2972 101.438 30.2535 101.207 30.2565Z" fill="black"/>
<path d="M111.744 35.0031V31.4085C111.744 30.7394 111.451 30.3102 110.769 30.3102C110.489 30.3305 110.218 30.414 109.975 30.5545C109.732 30.695 109.525 30.8888 109.368 31.1213V35.0031H108.547V31.4085C108.547 30.7394 108.26 30.3102 107.569 30.3102C107.29 30.3331 107.019 30.4191 106.778 30.5618C106.537 30.7045 106.331 30.9001 106.177 31.1339V35.0031H105.356V29.7074H106.177V30.4743C106.38 30.2099 106.638 29.9927 106.934 29.838C107.229 29.6832 107.555 29.5945 107.888 29.578C108.202 29.5508 108.517 29.6342 108.777 29.814C109.036 29.9937 109.225 30.2585 109.311 30.5627C109.508 30.269 109.772 30.0266 110.082 29.8553C110.391 29.6841 110.737 29.589 111.091 29.578C112.057 29.578 112.571 30.1145 112.571 31.1781V35.0031H111.744Z" fill="black"/>
<path d="M117.792 35.0031V34.4003C117.569 34.6402 117.297 34.8295 116.995 34.9558C116.693 35.0821 116.367 35.1423 116.04 35.1325C115.141 35.1325 114.188 34.5297 114.188 33.381C114.188 32.2322 115.134 31.6388 116.04 31.6388C116.367 31.6219 116.694 31.6779 116.997 31.8029C117.3 31.9279 117.572 32.1187 117.792 32.3616V31.4148C117.792 30.7015 117.224 30.2944 116.457 30.2944C116.149 30.2903 115.844 30.3541 115.564 30.4812C115.283 30.6082 115.034 30.7956 114.834 31.0297L114.449 30.4585C114.72 30.171 115.048 29.9443 115.413 29.7935C115.777 29.6428 116.17 29.5715 116.564 29.5843C117.684 29.5843 118.615 30.0861 118.615 31.3706V35.0095L117.792 35.0031ZM117.792 33.8828V32.8855C117.617 32.6695 117.394 32.4976 117.141 32.3836C116.888 32.2696 116.611 32.2166 116.334 32.229C115.567 32.229 115.03 32.7119 115.03 33.3904C115.03 34.069 115.567 34.5424 116.334 34.5424C116.611 34.5541 116.888 34.5006 117.141 34.386C117.394 34.2715 117.617 34.0991 117.792 33.8828Z" fill="black"/>
<path d="M120.222 32.349C120.222 30.771 121.285 29.578 122.863 29.578C123.237 29.5592 123.61 29.6332 123.949 29.7935C124.288 29.9537 124.581 30.1952 124.804 30.4964L124.255 31.0013C124.108 30.78 123.907 30.5995 123.672 30.4765C123.436 30.3534 123.173 30.2919 122.907 30.2976C121.778 30.2976 121.077 31.1655 121.077 32.3363C121.077 33.5072 121.778 34.3877 122.907 34.3877C123.172 34.3931 123.433 34.3327 123.668 34.2121C123.904 34.0914 124.105 33.9143 124.255 33.6966L124.804 34.2015C124.581 34.5027 124.288 34.7442 123.949 34.9044C123.61 35.0647 123.237 35.1387 122.863 35.1199C121.285 35.1325 120.222 33.927 120.222 32.349Z" fill="black"/>
<path d="M88.4629 10.541H92.2501V15.3949L95.5134 10.541H99.3195V21H95.5544V15.8746L92.0828 21H88.4629V10.541Z" fill="black"/>
<path d="M104.526 13.8043H101.724V10.541H111.091V13.8043H108.313V21H104.526V13.8043Z" fill="black"/>
<path d="M113.127 12.9901C113.602 12.1526 114.302 11.4641 115.147 11.0018C116.046 10.5073 117.059 10.255 118.085 10.2696C119.054 10.2567 120.008 10.5065 120.846 10.9923C121.676 11.4814 122.351 12.196 122.79 13.0532C123.279 14.0107 123.523 15.0744 123.501 16.1492V16.9414H116.327C116.44 17.3678 116.712 17.7347 117.088 17.9671C117.558 18.2664 118.109 18.413 118.666 18.3868C119.107 18.3714 119.543 18.2939 119.963 18.1564C120.377 18.0566 120.764 17.8634 121.092 17.5915L122.67 19.9554C122.097 20.4176 121.429 20.7493 120.714 20.9274C119.908 21.1561 119.074 21.2718 118.236 21.2714C117.21 21.287 116.196 21.0576 115.276 20.6023C114.413 20.1775 113.69 19.5137 113.193 18.6898C112.67 17.8104 112.401 16.8031 112.417 15.78C112.404 14.8037 112.649 13.8414 113.127 12.9901ZM116.829 13.5708C116.561 13.8282 116.373 14.1567 116.286 14.5176H119.906C119.805 14.1594 119.614 13.8332 119.35 13.5708C118.986 13.2973 118.543 13.1495 118.088 13.1495C117.633 13.1495 117.19 13.2973 116.826 13.5708H116.829Z" fill="black"/>
<path d="M130.061 17.5505L129.247 18.5951V21H125.46V10.541H129.247V14.3692L131.819 10.541H136.38L132.719 15.3129L136.588 20.9937H131.968L130.061 17.5505Z" fill="black"/>
<path d="M138.107 12.8859C138.602 12.0548 139.325 11.3825 140.19 10.9481C141.114 10.487 142.136 10.2543 143.169 10.2696C144.113 10.2407 145.05 10.4422 145.899 10.8566C146.557 11.1738 147.128 11.6473 147.562 12.2358L145.116 14.5365C144.946 14.2452 144.695 14.0095 144.393 13.858C144.065 13.6944 143.703 13.6121 143.336 13.6181C143.056 13.6098 142.776 13.6572 142.514 13.7574C142.252 13.8576 142.012 14.0087 141.809 14.202C141.603 14.4045 141.443 14.648 141.339 14.9167C141.235 15.1854 141.188 15.4731 141.203 15.761C141.187 16.0548 141.232 16.3487 141.336 16.6237C141.441 16.8988 141.602 17.1489 141.809 17.358C142.222 17.7437 142.771 17.9502 143.336 17.9324C143.705 17.9387 144.07 17.8484 144.393 17.6704C144.69 17.5113 144.939 17.2774 145.116 16.9919L147.562 19.2926C147.127 19.8835 146.552 20.3574 145.889 20.6718C145.043 21.0839 144.11 21.2853 143.169 21.2588C142.135 21.2746 141.113 21.0407 140.19 20.5771C139.324 20.145 138.601 19.4735 138.107 18.6425C137.595 17.7684 137.336 16.7702 137.356 15.7579C137.336 14.7495 137.596 13.7554 138.107 12.8859Z" fill="black"/>
<path d="M81.9862 15.78C81.9862 14.4071 81.1972 13.5329 79.9727 13.5329C79.667 13.5226 79.3623 13.573 79.0762 13.6814C78.7902 13.7897 78.5285 13.9538 78.3063 14.1641V17.5473C78.7954 17.8562 79.3628 18.0183 79.9412 18.0144C81.1688 18.0144 81.9862 17.1371 81.9862 15.78ZM78.3063 24.9955H74.5381V10.5631H77.4006L77.7162 11.734C78.1657 11.2718 78.7065 10.9083 79.3042 10.6665C79.9019 10.4247 80.5433 10.31 81.1878 10.3296C84.0503 10.3296 85.8618 12.2011 85.8618 15.6758C85.8618 19.3273 83.7315 21.2872 81.1878 21.2872C80.1479 21.2875 79.1351 20.9558 78.2969 20.3404L78.3063 24.9955Z" fill="black"/>
<path d="M64.8716 15.6695C66.8915 15.6695 67.8288 14.7921 67.8288 13.6812C67.8288 12.5703 66.882 11.6582 64.8716 11.6582V15.6695ZM60.5953 11.6582C58.6038 11.6582 57.6665 12.5388 57.6665 13.6812C57.6665 14.8237 58.6133 15.6695 60.5953 15.6695V11.6582ZM60.5953 19.5072C55.997 19.5072 53.3018 17.1055 53.3018 13.6812C53.3018 10.257 55.997 7.8521 60.5953 7.8521V6.35931H64.8716V7.8521C69.4668 7.8521 72.1904 10.2538 72.1904 13.6812C72.1904 17.1086 69.4668 19.5072 64.8716 19.5072V21H60.5953V19.5072Z" fill="black"/>
</svg>
